<svg width="24" height="25" viewBox="0 0 24 25" fill="none" xmlns="http://www.w3.org/2000/svg">
<g clip-path="url(#clip0_16080_4147)">
<path d="M16.6299 9.79021H15.0569V4.84378C15.0569 4.29967 14.6117 3.85449 14.0676 3.85449H10.1105C9.56638 3.85449 9.12121 4.29967 9.12121 4.84378V9.79021H7.54824C6.66778 9.79021 6.2226 10.8586 6.84585 11.4819L11.3867 16.0227C11.7725 16.4085 12.3957 16.4085 12.7816 16.0227L17.3224 11.4819C17.9456 10.8586 17.5103 9.79021 16.6299 9.79021ZM5.16406 19.6831C5.16406 20.2272 5.60924 20.6723 6.15335 20.6723H18.0248C18.5689 20.6723 19.0141 20.2272 19.0141 19.6831C19.0141 19.139 18.5689 18.6938 18.0248 18.6938H6.15335C5.60924 18.6938 5.16406 19.139 5.16406 19.6831Z" fill="#E0E2EB"/>
</g>
<defs>
<clipPath id="clip0_16080_4147">
<rect width="23.7429" height="23.7429" fill="white" transform="translate(0.217773 0.886719)"/>
</clipPath>
</defs>
</svg>
