<svg width="24" height="25" viewBox="0 0 24 25" fill="none" xmlns="http://www.w3.org/2000/svg">
<g clipPath="url(#clip0_9_4837)">
<path d="M10.3 8.16533C9.91 8.55533 9.91 9.17533 10.3 9.56533L12.2 11.4653H3C2.45 11.4653 2 11.9153 2 12.4653C2 13.0153 2.45 13.4653 3 13.4653H12.2L10.3 15.3653C9.91 15.7553 9.91 16.3753 10.3 16.7653C10.69 17.1553 11.31 17.1553 11.7 16.7653L15.29 13.1753C15.68 12.7853 15.68 12.1553 15.29 11.7653L11.7 8.16533C11.31 7.77533 10.69 7.77533 10.3 8.16533ZM20 19.4653H13C12.45 19.4653 12 19.9153 12 20.4653C12 21.0153 12.45 21.4653 13 21.4653H20C21.1 21.4653 22 20.5653 22 19.4653V5.46533C22 4.36533 21.1 3.46533 20 3.46533H13C12.45 3.46533 12 3.91533 12 4.46533C12 5.01533 12.45 5.46533 13 5.46533H20V19.4653Z" fill="white"/>
</g>
<defs>
<clipPath id="clip0_9_4837">
<rect width="24" height="24" fill="white" transform="translate(0 0.465332)"/>
</clipPath>
</defs>
</svg>
