<svg width="24" height="25" viewBox="0 0 24 25" fill="none" xmlns="http://www.w3.org/2000/svg">
<path fill-rule="evenodd" clip-rule="evenodd" d="M12.136 3.46533C8.35614 3.46533 5.32027 6.67184 5.31895 10.5376L5.28701 15.0089C4.86117 15.1882 4.55608 15.5286 4.36097 15.9085C4.08968 16.4367 4 17.0796 4 17.6462C4 18.0267 4.30842 18.3351 4.68888 18.3351H9.06372C9.41773 19.6139 10.7359 20.4653 12.1453 20.4653C13.5547 20.4653 14.8729 19.6139 15.2269 18.3351H19.6011C19.9816 18.3351 20.29 18.0267 20.29 17.6462C20.29 17.0522 20.1642 16.4037 19.8596 15.878C19.6483 15.5131 19.3335 15.1864 18.9132 15.0111L18.9531 10.5462L18.9531 10.5401C18.9531 6.67324 15.9167 3.46533 12.136 3.46533Z" fill="#072B61"/>
<path d="M17 2.96533C18.3807 2.96533 19.5 4.08462 19.5 5.46533C19.5 6.84604 18.3807 7.96533 17 7.96533C15.6193 7.96533 14.5 6.84604 14.5 5.46533C14.5 4.08462 15.6193 2.96533 17 2.96533Z" fill="#11AC57" stroke="white"/>
</svg>
