<svg width="14" height="25" viewBox="0 0 14 25" fill="none" xmlns="http://www.w3.org/2000/svg">
<path d="M11.7461 0.59375C12.992 0.5938 13.9999 1.60173 14 2.84766V23.9668C14 24.2467 13.7691 24.4354 13.5312 24.4355C13.4123 24.4355 13.3001 24.3938 13.2021 24.2959L7.3291 18.4229C7.2381 18.3319 7.119 18.2832 7 18.2832C6.881 18.2832 6.7619 18.3319 6.6709 18.4229L0.797852 24.2959C0.69988 24.3938 0.580693 24.4355 0.46875 24.4355C0.230852 24.4354 2.62242e-05 24.2467 0 23.9668V2.84766C5.06393e-05 1.60173 1.00798 0.593801 2.25391 0.59375H11.7461Z" fill="#11AC57"/>
</svg>
